<svg xmlns="http://www.w3.org/2000/svg" viewBox="0 0 69.4 10.95"><defs><style>.cls-1{isolation:isolate;}.cls-2{fill:#1e1e1e;}</style></defs><title>자산 1</title><g id="레이어_2" data-name="레이어 2"><g id="레이어_1-2" data-name="레이어 1"><g class="cls-1"><path class="cls-2" d="M1.18,10.74H0V.27L1.18,0Zm3.4-7.59.92.69-2.42,3,2.8,3.35L5,10.93l-3.27-4Z"/><path class="cls-2" d="M6.38,8.75A2,2,0,0,1,7.12,7a3.48,3.48,0,0,1,2.16-.57h1.47v-.6a1.7,1.7,0,0,0-.38-1.26,1.56,1.56,0,0,0-1.12-.37,4.41,4.41,0,0,0-1.06.14,6,6,0,0,0-1,.35l-.35-.82A5,5,0,0,1,8,3.41a4.59,4.59,0,0,1,1.24-.18,2.66,2.66,0,0,1,2,.65,2.79,2.79,0,0,1,.65,2v4.82H11l-.14-.81a4.47,4.47,0,0,1-1.2.68,3.51,3.51,0,0,1-1.21.24,2.07,2.07,0,0,1-1.53-.55A2.1,2.1,0,0,1,6.38,8.75ZM8.68,9.9a2.11,2.11,0,0,0,.54-.07,4.11,4.11,0,0,0,.57-.17,3.78,3.78,0,0,0,.53-.27,2.12,2.12,0,0,0,.43-.33V7.29H9.44A2.44,2.44,0,0,0,8,7.64a1.23,1.23,0,0,0-.47,1,1.24,1.24,0,0,0,.3.9A1.22,1.22,0,0,0,8.68,9.9Z"/><path class="cls-2" d="M15,10.74H13.85V.27L15,0Zm3.4-7.59.93.69-2.42,3,2.8,3.35-.93.72-3.26-4Z"/><path class="cls-2" d="M20.23,8.75A2,2,0,0,1,21,7a3.51,3.51,0,0,1,2.17-.57H24.6v-.6a1.74,1.74,0,0,0-.38-1.26,1.57,1.57,0,0,0-1.12-.37A4.35,4.35,0,0,0,22,4.38a6.15,6.15,0,0,0-1,.35l-.35-.82a4.9,4.9,0,0,1,1.2-.5,4.54,4.54,0,0,1,1.24-.18,2.68,2.68,0,0,1,2,.65,2.79,2.79,0,0,1,.64,2v4.82h-.87l-.14-.81a4.27,4.27,0,0,1-1.19.68,3.55,3.55,0,0,1-1.21.24,2.07,2.07,0,0,1-1.54-.55A2.1,2.1,0,0,1,20.23,8.75Zm2.3,1.15a2.09,2.09,0,0,0,.53-.07,3.74,3.74,0,0,0,.57-.17,2.93,2.93,0,0,0,.53-.27,2.2,2.2,0,0,0,.44-.33V7.29H23.28a2.48,2.48,0,0,0-1.47.35,1.22,1.22,0,0,0-.46,1,1.24,1.24,0,0,0,.3.9A1.19,1.19,0,0,0,22.53,9.9Z"/><path class="cls-2" d="M30.55,3.23a3.05,3.05,0,0,1,2.41,1,4.24,4.24,0,0,1,.86,2.85A4.15,4.15,0,0,1,33,9.9a3,3,0,0,1-2.41,1,3.06,3.06,0,0,1-2.41-1,4.15,4.15,0,0,1-.87-2.83,4.14,4.14,0,0,1,.88-2.85A3,3,0,0,1,30.55,3.23Zm0,1A1.76,1.76,0,0,0,29,4.93a3.6,3.6,0,0,0-.54,2.14A3.51,3.51,0,0,0,29,9.19a2,2,0,0,0,3,0,3.51,3.51,0,0,0,.54-2.12,3.6,3.6,0,0,0-.54-2.14A1.78,1.78,0,0,0,30.55,4.2Z"/></g><g class="cls-1"><path class="cls-2" d="M35.68,8.61a2.1,2.1,0,0,1,.78-1.77,3.67,3.67,0,0,1,2.28-.6h1.18V6a2.17,2.17,0,0,0-.06-.54.71.71,0,0,0-.21-.4,1,1,0,0,0-.41-.25,2.48,2.48,0,0,0-.68-.08,4.14,4.14,0,0,0-1,.11,3.94,3.94,0,0,0-1,.38l-.51-1.29a4.3,4.3,0,0,1,1.26-.57,5.33,5.33,0,0,1,1.47-.21,3,3,0,0,1,2.15.7A2.82,2.82,0,0,1,41.67,6v4.76H40.35l-.21-.63a3.79,3.79,0,0,1-1.15.64,3.63,3.63,0,0,1-1.07.18,2.2,2.2,0,0,1-1.67-.6A2.43,2.43,0,0,1,35.68,8.61Zm2.62.87a2.48,2.48,0,0,0,.93-.18,2.73,2.73,0,0,0,.69-.41V7.45h-1c-1,0-1.54.38-1.54,1.15a.9.9,0,0,0,.23.64A.94.94,0,0,0,38.3,9.48Z"/><path class="cls-2" d="M46.58,4.9a3.65,3.65,0,0,0-.74.08,4.5,4.5,0,0,0-.68.19v5.57H43.28V3.36h1.34l.3.81A3.41,3.41,0,0,1,46,3.41a3,3,0,0,1,1.22-.27h.33a1.33,1.33,0,0,1,.3.06L47.66,5l-.47-.1A5,5,0,0,0,46.58,4.9Z"/><path class="cls-2" d="M51.48,3.14a2.82,2.82,0,0,1,2.29.95,4.13,4.13,0,0,1,.79,2.73,3.7,3.7,0,0,1,0,.47,2.37,2.37,0,0,1,0,.37H50.08A1.88,1.88,0,0,0,50.62,9a2.12,2.12,0,0,0,1.49.45l.45,0a4.5,4.5,0,0,0,.51-.08l.49-.13L54,9l.42,1.28a5.46,5.46,0,0,1-.53.24,6.18,6.18,0,0,1-.65.21c-.23.05-.46.1-.7.13a5.13,5.13,0,0,1-.65,0,3.61,3.61,0,0,1-2.79-1A4.15,4.15,0,0,1,48.18,7a5.62,5.62,0,0,1,.23-1.65,3.56,3.56,0,0,1,.66-1.22,2.75,2.75,0,0,1,1-.77A3.38,3.38,0,0,1,51.48,3.14Zm0,1.41a1.15,1.15,0,0,0-1,.48,2.41,2.41,0,0,0-.37,1.35h2.67A2.54,2.54,0,0,0,52.44,5,1.17,1.17,0,0,0,51.43,4.55Z"/><path class="cls-2" d="M55.78,3.36h1.33l.28.74a3.86,3.86,0,0,1,1.13-.71,3.25,3.25,0,0,1,1.22-.25,2.31,2.31,0,0,1,1.87.73A3.25,3.25,0,0,1,62.22,6v4.73H60.35V6a1.24,1.24,0,0,0-.28-.9,1.46,1.46,0,0,0-1-.28,3.56,3.56,0,0,0-.67.08,4.28,4.28,0,0,0-.71.2v5.69H55.78Z"/><path class="cls-2" d="M63.41,8.61a2.1,2.1,0,0,1,.78-1.77,3.7,3.7,0,0,1,2.29-.6h1.17V6a2.84,2.84,0,0,0-.05-.54.85.85,0,0,0-.21-.4A1,1,0,0,0,67,4.8a2.4,2.4,0,0,0-.67-.08,4.23,4.23,0,0,0-1,.11,3.74,3.74,0,0,0-1,.38l-.52-1.29a4.37,4.37,0,0,1,1.27-.57,5.31,5.31,0,0,1,1.46-.21,3,3,0,0,1,2.16.7A2.85,2.85,0,0,1,69.4,6v4.76H68.09l-.21-.63a3.83,3.83,0,0,1-1.16.64,3.58,3.58,0,0,1-1.07.18,2.18,2.18,0,0,1-1.66-.6A2.39,2.39,0,0,1,63.41,8.61ZM66,9.48a2.55,2.55,0,0,0,1.62-.59V7.45h-1c-1,0-1.54.38-1.54,1.15a.85.85,0,0,0,.23.64A.9.9,0,0,0,66,9.48Z"/></g></g></g></svg>
